Coordinates
version=1
nRows=6
nColumns=34
inDegrees=yes

Units are S.I. units (second, meters, Newtons, ...)
If the header above contains a line with 'inDegrees', this indicates whether rotational values are in degrees (yes) or radians (no).

endheader
time	pelvis_tilt	pelvis_list	pelvis_rotation	pelvis_tx	pelvis_ty	pelvis_tz	hip_flexion_r	hip_adduction_r	hip_rotation_r	knee_angle_r	ankle_angle_r	subtalar_angle_r	mtp_angle_r	hip_flexion_l	hip_adduction_l	hip_rotation_l	knee_angle_l	ankle_angle_l	subtalar_angle_l	mtp_angle_l	lumbar_extension	lumbar_bending	lumbar_rotation	arm_flex_r	arm_add_r	arm_rot_r	elbow_flex_r	pro_sup_r	arm_flex_l	arm_add_l	arm_rot_l	elbow_flex_l	pro_sup_l
      0.00000000	     14.40488801	     -1.02872534	     -0.94243306	     -6.21149810	      1.00872819	     -1.00335821	    -12.13073886	      7.34456101	     -1.25895963	     10.24881202	     11.09541529	     -1.34431387	      0.00000000	     -8.47205921	     -6.12263277	     -2.94118554	     37.27136183	     -2.80862745	    -18.19575241	      0.00000000	    -25.96114870	      4.28595796	     -2.28779497	      6.64035271	     -6.14135573	      9.16531324	     24.19527948	     69.35648531	     11.29114111	    -11.10730666	     28.47654117	    113.23850650	    111.65305050
      0.01666670	     18.72106887	     -1.80450704	     -0.93038129	     -6.21736932	      1.01433944	     -1.00524478	    -17.53991766	      8.12961886	     -0.44948132	      8.57583152	      9.95787423	     -1.69809274	      0.00000000	    -12.38031246	     -6.92109452	     -3.69309375	     37.37010046	     -4.81548409	    -19.45202172	      0.00000000	    -32.37909382	      5.34930711	     -2.40151840	      8.53436084	     -6.10525567	      8.59833081	     24.32052084	     70.85713858	     13.78587575	    -10.66522722	     31.85275736	    120.51507729	    111.80660719
      0.03333330	     19.03183897	     -2.78206569	     -0.99010600	     -6.22022379	      1.01386233	     -1.00543407	    -18.06872130	      9.20828653	     -2.26780326	      7.87369824	      8.83410136	     -1.46703114	      0.00000000	    -12.00645385	     -8.08865025	     -4.71677171	     38.33575490	     -3.62666133	    -18.61286652	      0.00000000	    -33.67311868	      6.56257069	     -1.13364540	      8.12572042	     -5.67129426	     -2.87331621	     25.75428054	    105.30829443	     16.34360091	     -9.62150320	     34.81115280	    123.61260269	    111.06619038
      0.05000000	     20.37776215	     -3.47496280	     -0.61378587	     -6.22283288	      1.01512514	     -1.00560911	    -19.46989507	      9.91360863	     -2.21390049	      7.66396701	      8.38615588	     -1.27760952	      0.00000000	    -13.23920799	     -8.88274188	     -4.84207833	     38.80625553	     -3.38222766	    -19.64062318	      0.00000000	    -36.00339117	      7.24930344	     -1.55442224	      9.29578936	     -5.30180919	     -3.45343798	     25.01176132	    105.57091603	     18.72025431	     -9.14873255	     36.88937152	    127.24898234	    110.97229197
      0.06666670	     21.04321226	     -4.01864601	     -0.51260374	     -6.22404359	      1.01542902	     -1.00593273	    -20.14246830	     10.42921417	     -2.24081721	      7.54713778	      8.57949321	     -1.21572023	      0.00000000	    -13.75607411	     -9.54975096	     -5.07078391	     39.14951994	     -2.78318091	    -19.77473002	      0.00000000	    -37.37970891	      7.79707583	     -1.74418097	     10.21329030	     -5.10542081	     -3.97444153	     24.76735263	    105.95630581	     21.06073101	     -9.06378658	     39.68731788	    130.59862580	    110.88201356
      0.08333330	     21.66507261	     -4.28750406	     -0.31176667	     -6.22512506	      1.01653719	     -1.00669063	    -20.80507619	     10.69916376	     -2.37266285	      7.20511784	      8.61684677	     -1.17912506	      0.00000000	    -14.21685127	     -9.95510019	     -5.40137935	     39.31028842	     -2.37217611	    -19.70878409	      0.00000000	    -38.48447776	      8.17386362	     -1.94222353	     10.87784952	     -5.02806966	     -4.48800147	     24.63917782	    106.38190147	     23.65170370	     -9.14079535	     42.73138114	    133.49380219	    110.79164996
